# xmcd
# 
# Track frame offsets:
#     150
#     22075
#     41640
#     58215
#     77772
#     89822
#     105992
#     124140
#     141577
#     159610
# 
# Disc length: 2592
# 
# Revision: 1
# Processed by: cddbd v1.5.2PL0 Copyright (c) Steve Scherf et al.
# Submitted via: fre:ac v1.0.17
# 
DISCID=8f0a1e0a
DTITLE=AIR - A Day In The Life
DYEAR=2005
DGENRE=Rock
TTITLE0=Greeting From K.
TTITLE1=We Can Sing A Song(English ver.)
TTITLE2=It's A Beautiful Day
TTITLE3=海へ行く～go to the beach～
TTITLE4=Dusty Road
TTITLE5=Sunset
TTITLE6=Full Moon
TTITLE7=ポテト～potatoes～
TTITLE8=Hallelujah
TTITLE9=Sleep Well
EXTD=
EXTT0=
EXTT1=
EXTT2=
EXTT3=
EXTT4=
EXTT5=
EXTT6=
EXTT7=
EXTT8=
EXTT9=
PLAYORDER=
